<?xml version="1.0" standalone="no"?>
<!DOCTYPE svg PUBLIC "-//W3C//DTD SVG 20010904//EN"
 "http://www.w3.org/TR/2001/REC-SVG-20010904/DTD/svg10.dtd">
<svg version="1.0" xmlns="http://www.w3.org/2000/svg"
 width="1465.000000pt" height="837.000000pt" viewBox="0 0 1465.000000 837.000000"
 preserveAspectRatio="xMidYMid meet">

<g transform="translate(0.000000,837.000000) scale(0.100000,-0.100000)"
fill="#000000" stroke="none">
<path d="M3578 8353 c-24 -29 -27 -37 -95 -236 -81 -244 -213 -775 -213 -860
0 -95 106 26 273 313 136 233 160 256 267 248 46 -3 66 -9 76 -23 15 -20 16
-12 -27 -279 -16 -99 -29 -203 -29 -231 0 -52 22 -100 37 -80 78 105 236 362
296 482 87 173 131 345 144 559 7 112 0 127 -44 99 -40 -26 -152 -142 -212
-217 -65 -84 -92 -93 -218 -79 -62 6 -90 14 -99 26 -7 9 -20 51 -29 93 -26
117 -68 202 -100 202 -7 0 -19 -8 -27 -17z"/>
<path d="M2860 8344 c-52 -2 -241 -8 -420 -14 -351 -12 -454 -21 -500 -45 -58
-30 -90 -142 -55 -192 30 -43 72 -48 372 -47 l282 1 -60 -65 c-114 -121 -172
-220 -188 -319 -5 -33 -25 -101 -45 -151 -46 -121 -52 -152 -32 -190 27 -52
50 -58 104 -26 56 33 214 184 244 233 36 60 102 142 188 236 45 50 106 120
135 156 59 73 97 96 210 123 149 37 295 131 295 190 0 32 -36 71 -86 92 -38
16 -253 25 -444 18z"/>
<path d="M4879 8305 c-198 -27 -235 -64 -410 -415 -135 -271 -189 -409 -189
-487 0 -67 24 -77 163 -70 159 7 486 83 526 123 13 12 10 15 -20 28 -19 8
-100 29 -181 47 -166 36 -166 36 -128 114 22 45 66 76 140 95 86 23 200 93
200 123 0 14 -27 33 -101 71 -78 41 -93 57 -85 90 16 65 89 113 190 126 124
16 261 94 254 144 -3 20 -9 21 -133 23 -71 0 -173 -5 -226 -12z"/>
<path d="M2572 7083 c-90 -50 -297 -256 -457 -458 -44 -55 -107 -130 -140
-166 -33 -36 -84 -101 -114 -145 -58 -85 -90 -124 -102 -124 -14 0 -163 483
-185 599 -23 122 -107 249 -185 282 -26 10 -34 9 -57 -8 -82 -60 -172 -235
-370 -718 -145 -354 -185 -466 -222 -625 -70 -306 -98 -393 -252 -815 -66
-179 -176 -447 -273 -665 -209 -470 -233 -540 -200 -573 23 -24 45 -11 174
104 153 136 193 179 322 345 349 449 413 546 624 942 103 193 156 274 170 260
3 -3 -3 -48 -14 -100 -31 -147 -52 -358 -52 -538 0 -272 21 -287 187 -128 165
158 251 275 406 553 116 209 201 346 241 392 27 31 32 33 38 17 3 -11 4 -57 1
-104 -8 -142 24 -493 88 -965 17 -121 39 -317 50 -435 30 -316 47 -390 89
-390 41 0 76 72 120 241 47 185 170 951 195 1224 66 695 103 1764 67 1889 -15
50 -76 126 -102 126 -8 0 -29 -8 -47 -17z"/>
<path d="M4505 6968 c-100 -313 -307 -1315 -510 -2458 -110 -620 -132 -790
-105 -840 50 -94 429 100 800 411 276 231 493 500 611 756 56 122 126 330 143
425 35 195 28 527 -14 666 -41 139 -166 413 -233 512 -123 181 -395 458 -557
566 -95 64 -104 61 -135 -38z"/>
<path d="M6105 7023 c-27 -26 -51 -92 -94 -251 -78 -288 -137 -587 -211 -1062
-53 -339 -120 -674 -214 -1070 -113 -479 -155 -693 -171 -880 -11 -127 27
-185 107 -161 56 17 104 71 176 198 145 258 292 610 417 1003 92 289 141 426
155 435 5 3 16 -7 23 -22 27 -51 116 -310 172 -499 61 -202 145 -429 262 -704
154 -360 229 -467 285 -402 57 64 87 199 208 921 39 233 98 528 175 881 62
283 93 442 166 850 38 217 81 451 94 520 62 316 13 306 -220 -45 -301 -453
-512 -752 -568 -803 l-25 -23 -19 28 c-36 51 -128 214 -248 438 -217 404 -310
557 -381 628 -41 41 -64 46 -89 20z"/>
<path d="M3444 6965 c-47 -102 -279 -1066 -338 -1405 -57 -326 -72 -516 -91
-1190 -8 -289 -18 -572 -22 -630 -6 -98 -6 -130 2 -138 7 -7 82 -20 152 -27
l72 -7 19 39 c10 21 43 126 71 233 29 107 104 380 166 605 271 979 285 1079
315 2174 6 211 9 385 7 387 -1 2 -76 6 -165 10 l-162 7 -26 -58z"/>
<path d="M8208 6970 c-9 -5 -21 -25 -27 -43 -21 -64 -81 -318 -150 -627 -39
-173 -83 -371 -100 -440 -80 -337 -172 -903 -191 -1170 -14 -201 -23 -878 -13
-975 8 -79 9 -80 43 -96 19 -9 71 -20 115 -23 l80 -6 37 128 c20 70 65 201
101 292 36 91 82 219 102 285 20 66 68 219 105 340 118 380 140 492 180 949
30 338 31 1270 1 1347 -12 32 -31 37 -166 44 -63 4 -106 2 -117 -5z"/>
<path d="M9474 6950 c-117 -58 -241 -327 -480 -1046 -57 -171 -120 -373 -140
-450 -32 -124 -37 -156 -41 -304 -12 -375 41 -703 173 -1062 80 -218 103 -250
264 -368 165 -121 249 -146 342 -101 104 50 476 483 593 690 26 46 108 183
182 305 75 121 160 266 189 321 63 119 63 117 -41 200 -83 67 -583 403 -740
497 -167 101 -220 124 -240 108 -22 -18 -87 -160 -81 -176 3 -8 77 -107 164
-222 164 -214 277 -370 294 -408 7 -16 5 -31 -10 -61 -23 -44 -171 -204 -263
-284 -57 -49 -62 -52 -75 -35 -19 27 -258 754 -285 870 l-23 98 146 292 c143
283 255 472 314 529 22 22 35 27 56 23 15 -3 125 -49 245 -102 357 -157 517
-224 541 -224 62 0 32 123 -99 398 -70 148 -132 238 -202 294 -135 107 -515
238 -691 238 -31 0 -67 -8 -92 -20z"/>
<path d="M13455 6959 c-575 -6 -714 -13 -807 -41 -47 -14 -72 -40 -64 -66 17
-52 258 -180 461 -244 72 -22 130 -41 131 -42 0 0 -5 -62 -12 -136 -7 -74 -17
-340 -23 -590 -19 -814 -32 -1249 -46 -1595 -19 -457 -19 -629 0 -645 41 -34
119 29 176 142 73 144 234 609 438 1261 186 593 236 794 322 1286 18 100 38
189 45 195 6 7 61 23 120 36 190 41 402 124 444 175 32 38 -31 97 -219 204
l-125 71 -120 -2 c-67 -1 -391 -5 -721 -9z"/>
<path d="M11043 6952 c-37 -23 -85 -271 -133 -672 -11 -96 -36 -287 -55 -425
-86 -632 -169 -1555 -182 -2015 -7 -251 -3 -274 45 -268 81 9 207 313 397 958
88 300 156 504 225 682 l42 107 131 -5 c73 -3 151 -7 175 -10 l42 -5 0 -52 c0
-29 -7 -287 -16 -574 -8 -286 -14 -640 -12 -786 3 -265 3 -265 27 -291 46 -49
90 -26 131 69 85 197 280 843 440 1455 l72 275 5 682 c3 375 2 711 -2 747 -8
77 -33 118 -62 100 -10 -6 -35 -35 -55 -65 -52 -75 -346 -663 -393 -784 -21
-55 -43 -105 -49 -112 -8 -8 -62 -9 -205 -4 -175 7 -195 10 -208 27 -21 29
-56 154 -114 404 -77 337 -136 502 -195 549 -29 23 -33 24 -51 13z"/>
<path d="M4642 3505 c-67 -15 -240 -96 -332 -156 -69 -45 -133 -114 -237 -260
-109 -153 -152 -236 -213 -414 -28 -82 -84 -217 -125 -300 -90 -183 -99 -206
-131 -320 -14 -49 -54 -160 -89 -245 -35 -85 -84 -222 -109 -305 -100 -326
-151 -439 -244 -550 -92 -109 -133 -166 -163 -230 -66 -137 -79 -339 -27 -407
72 -93 303 -170 598 -198 63 -6 138 -15 165 -21 60 -13 135 2 283 57 237 89
454 220 610 368 253 241 331 425 392 921 35 287 51 346 197 695 156 373 240
660 258 885 19 221 -124 407 -361 470 -85 23 -388 30 -472 10z m266 -347 c7
-7 12 -39 12 -74 0 -79 -34 -331 -55 -415 -44 -169 -119 -408 -140 -444 -12
-22 -28 -67 -35 -100 -7 -33 -35 -109 -62 -170 -109 -241 -142 -329 -214 -572
-86 -293 -120 -388 -175 -493 -41 -79 -168 -246 -257 -338 -121 -125 -335
-165 -527 -101 -68 23 -70 25 -73 61 -6 74 108 347 192 459 100 133 169 287
246 549 51 175 175 566 231 735 17 50 38 117 47 150 24 95 111 364 139 432 31
77 92 140 192 199 149 87 440 161 479 122z"/>
<path d="M2385 3459 c-68 -10 -246 -94 -382 -181 -45 -29 -113 -73 -151 -96
-122 -77 -271 -210 -375 -338 -153 -185 -225 -285 -242 -333 -8 -24 -31 -68
-50 -96 -20 -28 -52 -98 -71 -156 -70 -207 -128 -290 -394 -565 -151 -155
-270 -299 -328 -395 -21 -35 -29 -55 -86 -214 -36 -104 -78 -298 -83 -395 -7
-113 7 -160 65 -222 48 -51 82 -70 377 -206 207 -95 291 -112 586 -112 241 0
354 14 464 56 49 20 136 51 192 69 123 40 210 86 398 210 154 102 282 212 451
387 144 149 165 194 209 447 9 54 32 124 66 200 136 310 143 327 147 381 4 49
1 60 -22 87 -32 38 -206 127 -301 153 -38 11 -140 27 -225 35 -85 9 -170 20
-188 26 -27 9 -37 8 -51 -5 -11 -10 -35 -16 -63 -16 -61 0 -163 -32 -275 -87
-72 -34 -102 -56 -134 -95 -28 -33 -60 -58 -95 -73 -67 -29 -94 -57 -94 -95 0
-53 32 -64 167 -57 131 7 152 2 221 -58 49 -42 52 -65 20 -128 -23 -46 -25
-78 -13 -234 8 -102 8 -103 -23 -165 -17 -35 -68 -104 -114 -156 -119 -133
-147 -170 -154 -200 -10 -41 -50 -79 -150 -138 -146 -88 -181 -97 -377 -102
-189 -5 -229 0 -256 29 -11 12 -30 58 -42 102 -19 66 -23 108 -23 217 0 131 1
139 38 248 21 62 55 145 75 185 44 86 224 345 384 551 136 175 170 238 203
372 43 174 182 427 312 565 123 132 484 291 684 301 l66 4 7 -96 c10 -157 25
-263 45 -306 15 -35 24 -42 54 -48 21 -4 40 -14 43 -22 20 -53 188 58 245 163
39 72 43 113 18 233 -40 203 -87 260 -275 335 -61 24 -89 28 -235 36 -190 9
-186 9 -265 -2z"/>
<path d="M8245 3449 c-33 -11 -73 -33 -90 -49 -16 -15 -49 -37 -72 -49 -24
-12 -50 -32 -59 -46 -9 -14 -24 -25 -33 -25 -28 0 -59 -36 -97 -112 -20 -39
-60 -106 -89 -148 -58 -81 -125 -213 -125 -243 0 -24 -29 -80 -91 -174 -76
-117 -107 -191 -135 -320 -33 -157 -81 -339 -149 -558 -54 -176 -96 -354 -110
-465 -4 -31 -26 -98 -52 -154 -64 -142 -128 -343 -152 -476 -43 -240 -57 -298
-89 -347 -27 -42 -30 -50 -18 -68 19 -30 58 -45 151 -60 47 -8 94 -19 105 -25
16 -8 22 -8 26 4 3 8 30 26 59 41 118 57 200 195 264 441 22 82 55 185 74 229
19 44 60 148 93 230 50 130 326 699 384 793 l20 32 151 0 c171 0 288 19 436
71 127 45 153 60 298 169 252 190 464 402 525 525 52 104 73 212 68 339 -5
124 -20 171 -71 224 -61 64 -138 90 -430 142 -95 17 -207 40 -250 51 -66 17
-373 49 -457 49 -14 -1 -52 -10 -85 -21z m462 -250 c24 -12 48 -30 55 -42 25
-47 39 -129 45 -255 l6 -132 -36 -73 c-65 -129 -225 -294 -345 -352 -73 -36
-259 -82 -273 -68 -6 6 6 47 40 125 27 64 56 140 64 169 9 30 22 79 31 109 9
30 43 105 77 165 34 61 83 155 109 210 48 102 75 136 120 154 38 15 60 13 107
-10z"/>
<path d="M12039 3455 c-117 -43 -219 -136 -294 -270 -56 -100 -75 -182 -85
-355 -11 -179 -35 -283 -100 -431 -109 -245 -125 -305 -164 -589 -38 -273 -54
-348 -87 -417 -16 -35 -34 -86 -39 -114 -5 -28 -30 -113 -54 -189 -25 -77 -52
-187 -61 -247 -9 -59 -28 -139 -42 -178 -43 -116 -72 -237 -72 -298 -1 -53 2
-61 37 -97 33 -36 49 -44 162 -75 69 -19 177 -51 240 -72 98 -31 128 -36 205
-36 139 1 236 33 485 162 89 46 249 102 293 103 18 1 59 -5 92 -11 81 -16 166
3 300 68 112 55 159 95 169 143 9 46 -13 63 -118 87 -48 12 -121 37 -161 56
-41 19 -93 39 -117 45 -54 12 -234 12 -453 0 -200 -11 -253 -20 -357 -60 -43
-17 -80 -30 -84 -30 -4 0 -4 28 -1 63 8 84 79 297 116 350 89 124 175 421 220
758 11 82 32 151 110 360 55 149 60 174 126 599 58 371 62 385 128 458 53 60
97 135 97 166 0 22 -35 34 -150 52 -118 17 -292 17 -341 -1z"/>
<path d="M6440 3399 c-154 -16 -201 -49 -511 -358 -154 -154 -211 -219 -228
-256 -13 -27 -32 -61 -42 -74 -14 -17 -19 -40 -19 -81 0 -103 41 -205 150
-370 69 -107 80 -138 80 -242 0 -107 34 -210 111 -332 87 -139 102 -188 96
-306 -5 -109 -45 -274 -88 -366 -54 -116 -360 -424 -491 -495 l-63 -34 -185
-1 c-122 0 -195 -5 -215 -13 -43 -18 -75 -51 -75 -77 0 -33 -36 -54 -96 -54
-95 0 -148 -35 -124 -81 25 -46 373 -189 557 -228 228 -50 435 -30 664 64 130
53 347 221 564 440 189 190 325 366 340 439 4 17 22 78 40 136 45 141 58 224
53 333 -6 121 -24 160 -128 272 -46 49 -91 108 -101 131 -10 22 -25 100 -34
173 -8 73 -22 148 -30 167 -7 18 -52 73 -98 122 -137 145 -227 290 -227 366 0
14 20 80 45 148 25 68 52 141 61 164 32 89 88 110 250 94 57 -5 136 -17 175
-27 59 -14 80 -15 127 -5 30 6 64 21 74 32 10 11 31 20 46 20 33 0 43 7 62 44
8 16 32 43 53 59 20 17 37 36 37 43 0 40 -435 137 -705 157 -27 2 -84 0 -125
-4z"/>
<path d="M10573 3376 c-104 -20 -167 -43 -263 -93 -47 -25 -131 -61 -188 -79
-116 -38 -176 -74 -215 -132 -38 -54 -86 -171 -87 -208 -1 -114 -125 -392
-245 -549 -42 -55 -90 -129 -108 -165 -31 -63 -32 -67 -33 -205 0 -132 -2
-145 -31 -222 -40 -106 -106 -216 -216 -362 -61 -80 -92 -131 -102 -166 -7
-27 -18 -131 -24 -230 -10 -187 -19 -229 -57 -280 -33 -44 -74 -136 -74 -166
0 -35 65 -108 126 -141 31 -16 73 -28 114 -32 44 -4 75 -14 100 -31 58 -40
138 -55 295 -55 295 0 394 29 727 212 111 61 129 75 147 111 33 67 6 86 -129
87 -78 1 -138 17 -189 51 -64 42 -159 69 -278 78 -57 4 -109 13 -118 21 -22
18 -20 129 6 252 31 156 112 387 198 568 l79 165 123 8 c205 12 348 60 478
161 71 55 157 143 148 152 -3 4 -57 10 -119 14 -118 8 -183 22 -327 70 -47 16
-108 31 -136 35 -76 9 -95 14 -95 25 0 6 26 39 58 73 71 77 94 109 132 186 43
86 69 207 76 357 l7 131 162 86 c109 58 199 97 277 121 122 38 198 82 198 115
0 15 -12 22 -52 31 -81 18 -282 22 -365 6z"/>
</g>
</svg>
